<svg id="Layer_1" data-name="Layer 1" xmlns="http://www.w3.org/2000/svg" viewBox="0 0 422.42 266.82"><defs><style>.cls-1{fill:none;stroke:#5352ed;stroke-width:8px;}.cls-2{font-size:85px;fill:#5352ed;font-family:HelveticaNeue, Helvetica Neue;}</style></defs><title>logo</title><path class="cls-1" d="M172.82,211.46h0c-13.85-8.51-23.45-16-29.55-22.9s-8.52-13.07-8.52-19.23V46.64c21-6,47.52-9.64,76.44-9.64s55.5,3.64,76.47,9.64V169.33c0,6.16-2.47,12.36-8.52,19.24S263.43,203,249.6,211.46c-8.18,5-16.38,9.46-22.63,12.69-3.12,1.62-5.75,2.93-7.63,3.85l-2.24,1.08-.64.3-.23.11,0,0h0l-4.93,2.3-5-2.29h0A374.52,374.52,0,0,1,172.82,211.46Z"/><text class="cls-2" transform="translate(171.28 150.96)">ID</text></svg>