<svg id="Layer_1" data-name="Layer 1" xmlns="http://www.w3.org/2000/svg" viewBox="0 0 422.42 266.82"><defs><style>.cls-1{font-size:39px;fill:#1d1d1b;font-family:Avenir-Light, Avenir;font-weight:300;letter-spacing:0.02em;}.cls-2{fill:#010101;}.cls-3{fill:#f16522;}.cls-4{fill:#e41b24;}.cls-5{fill:#f89e1c;}</style></defs><title>logo</title><text class="cls-1" transform="translate(130.09 233.35)">ID Check</text><path class="cls-2" d="M150,190.71v-10a6,6,0,0,0-6.29-6.36,6.2,6.2,0,0,0-5.62,2.84,5.86,5.86,0,0,0-5.28-2.84,5.3,5.3,0,0,0-4.69,2.37v-2h-3.48v16h3.52v-8.86c0-2.78,1.54-4.25,3.91-4.25s3.48,1.5,3.48,4.21v8.9h3.51v-8.86c0-2.78,1.61-4.25,3.92-4.25s3.51,1.5,3.51,4.21v8.9Zm52-16H196.3v-4.85h-3.51v4.85h-3.25v3.18h3.25v7.29c0,3.71,1.44,5.92,5.55,5.92a8.15,8.15,0,0,0,4.35-1.24l-1-3a6.47,6.47,0,0,1-3.08.9c-1.74,0-2.31-1.07-2.31-2.67V177.9H202Zm29.67-.4a4.71,4.71,0,0,0-4.21,2.34v-1.94H224v16h3.48v-9c0-2.65,1.14-4.12,3.41-4.12a5.74,5.74,0,0,1,2.18.4l1.07-3.28a7.49,7.49,0,0,0-2.48-.43M186.8,176a12,12,0,0,0-6.52-1.67c-4.05,0-6.66,1.94-6.66,5.12,0,2.61,1.94,4.21,5.52,4.72l1.64.23c1.9.27,2.81.77,2.81,1.67,0,1.24-1.27,1.94-3.65,1.94a8.54,8.54,0,0,1-5.32-1.67L173,189a11.59,11.59,0,0,0,6.93,2.07c4.62,0,7.29-2.17,7.29-5.21,0-2.81-2.11-4.29-5.59-4.79l-1.63-.24c-1.51-.19-2.71-.49-2.71-1.56s1.13-1.88,3-1.88a10.39,10.39,0,0,1,5,1.37Zm93.2-1.67a4.72,4.72,0,0,0-4.21,2.34v-1.94h-3.45v16h3.48v-9c0-2.65,1.14-4.12,3.41-4.12a5.74,5.74,0,0,1,2.18.4l1.07-3.28a7.49,7.49,0,0,0-2.48-.43m-44.83,8.4c0,4.85,3.38,8.39,8.53,8.39a8.35,8.35,0,0,0,5.76-1.91l-1.67-2.81a7,7,0,0,1-4.18,1.44,5.12,5.12,0,0,1,0-10.23,7,7,0,0,1,4.18,1.44l1.67-2.81a8.4,8.4,0,0,0-5.76-1.91c-5.15,0-8.53,3.55-8.53,8.4m32.59,0v-8h-3.48v1.94a6.06,6.06,0,0,0-5-2.34c-4.49,0-8,3.51-8,8.4s3.51,8.39,8,8.39a6.06,6.06,0,0,0,5-2.34v1.94h3.48Zm-12.95,0a4.84,4.84,0,1,1,4.85,5.11,4.79,4.79,0,0,1-4.85-5.11m-42-8.4c-4.69,0-8,3.41-8,8.4s3.41,8.39,8.19,8.39a9.72,9.72,0,0,0,6.56-2.24l-1.71-2.57a7.61,7.61,0,0,1-4.65,1.67,4.44,4.44,0,0,1-4.78-3.92h11.87c0-.43.07-.87.07-1.33,0-5-3.11-8.4-7.59-8.4m-.07,3.11c2.24,0,3.68,1.4,4.05,3.88h-8.3c.37-2.31,1.77-3.88,4.25-3.88M300,182.72V168.3h-3.48v8.36a6.06,6.06,0,0,0-5.05-2.34c-4.48,0-8,3.51-8,8.4s3.52,8.39,8,8.39a6.06,6.06,0,0,0,5.05-2.34v1.94H300Zm-13,0a4.84,4.84,0,1,1,4.85,5.11,4.79,4.79,0,0,1-4.85-5.11m-117.49,0v-8h-3.47v1.94a6.07,6.07,0,0,0-5-2.34c-4.49,0-8,3.51-8,8.4s3.51,8.39,8,8.39a6.07,6.07,0,0,0,5-2.34v1.94h3.47Zm-12.94,0a4.84,4.84,0,1,1,4.85,5.11,4.79,4.79,0,0,1-4.85-5.11m149.18,5.67a1.51,1.51,0,0,1,.63.13,1.39,1.39,0,0,1,.51.34,1.46,1.46,0,0,1,.35.5,1.68,1.68,0,0,1,.13.62,1.6,1.6,0,0,1-.13.62,1.46,1.46,0,0,1-.35.5,1.54,1.54,0,0,1-.51.35,1.74,1.74,0,0,1-1.27,0,1.7,1.7,0,0,1-.52-.35,1.58,1.58,0,0,1-.34-.5,1.6,1.6,0,0,1-.13-.62,1.68,1.68,0,0,1,.13-.62,1.58,1.58,0,0,1,.34-.5,1.69,1.69,0,0,1,1.16-.47m0,2.83a1.12,1.12,0,0,0,.48-.1,1.2,1.2,0,0,0,.65-.65,1.38,1.38,0,0,0,.1-.49,1.29,1.29,0,0,0-.1-.48,1.16,1.16,0,0,0-.26-.39,1.19,1.19,0,0,0-.39-.27,1.28,1.28,0,0,0-.48-.09,1.3,1.3,0,0,0-.49.09,1.33,1.33,0,0,0-.66.66,1.28,1.28,0,0,0-.09.48,1.37,1.37,0,0,0,.09.49,1.19,1.19,0,0,0,.27.39,1.16,1.16,0,0,0,.39.26,1.13,1.13,0,0,0,.49.1m.09-2a.7.7,0,0,1,.44.12.46.46,0,0,1,.16.35.38.38,0,0,1-.13.3.57.57,0,0,1-.35.15l.49.56h-.38l-.45-.56h-.14v.56h-.32v-1.48Zm-.36.28v.39h.36a.39.39,0,0,0,.2,0,.16.16,0,0,0,.07-.15.17.17,0,0,0-.07-.15.4.4,0,0,0-.2,0Z"/><rect class="cls-3" x="185.64" y="52.86" width="52.7" height="94.7"/><path class="cls-4" d="M189,100.2a60.11,60.11,0,0,1,23-47.34,60.23,60.23,0,1,0,0,94.69,60.13,60.13,0,0,1-23-47.35"/><path class="cls-5" d="M309.43,100.2A60.21,60.21,0,0,1,212,147.55a60.24,60.24,0,0,0,0-94.7,60.22,60.22,0,0,1,97.43,47.35m-5.74,37.32v-1.94h.78v-.39h-2v.39h.78v1.94Zm3.86,0v-2.34h-.61l-.7,1.61-.7-1.61h-.61v2.34h.43v-1.76l.66,1.52h.44l.66-1.53v1.77Z"/></svg>