<svg id="Layer_1" data-name="Layer 1" xmlns="http://www.w3.org/2000/svg" viewBox="0 0 422.42 266.82"><defs><style>.cls-1{fill:#fff;stroke:#000;stroke-width:7.1px;}.cls-2{fill:none;}</style></defs><title>logo</title><rect class="cls-1" x="23.42" y="68.75" width="377.57" height="143.44"/><path d="M205.54,112c-4.5,0-6.45-4-6.45-8.17v-.32c0-4.22,1.95-8.18,6.45-8.18a5.67,5.67,0,0,1,5.4,4.15l3.48-1a8.82,8.82,0,0,0-8.88-6.29c-6.26,0-10.15,5.08-10.15,11.5s3.86,11.49,10.12,11.49a8.86,8.86,0,0,0,8.91-6.29l-3.48-1A5.66,5.66,0,0,1,205.54,112Zm26.58-4.15V106.7c0-4.85-2.78-8.43-7.15-8.43-4.7,0-7.76,3.54-7.76,8.46s3.06,8.46,7.76,8.46a9,9,0,0,0,6.22-2.3l-1.78-2.45a5.78,5.78,0,0,1-4.35,1.69c-2.42,0-4.05-1.76-4.37-4.22Zm-7.25-6.67c2.36,0,3.67,2,3.71,4.05h-7.86A4.12,4.12,0,0,1,224.87,101.21Zm19.6-2.88h-.6a5.54,5.54,0,0,0-4.92,2.43V98.59h-3.32v16.28H239v-8c0-4.12,2.53-5.08,4.92-5.08h.54Zm8.15,3.29h4.44v-3h-4.44v-6.1c-1.15.35-2.27.77-3.42,1.12v5h-3v3h3v9.58c0,2.91,1.76,4,4.5,4a23.08,23.08,0,0,0,3.32-.25l-.44-3a13.9,13.9,0,0,1-2,.19c-1.53,0-1.91-.64-1.91-1.5Zm11.18-3h-3.38v16.28h3.38Zm-4-4.09a2.3,2.3,0,1,0,2.3-2.3A2.29,2.29,0,0,0,259.81,94.5Zm13.28,2.2c0-.76.52-1.46,1.76-1.46a19,19,0,0,1,2.4.19l.28-2.91a13.36,13.36,0,0,0-3-.32c-2.74,0-4.82,1.09-4.82,4v2.4H267v3h2.68v13.25h3.38V101.62h3.23v-3h-3.23ZM283,98.59h-3.38v16.28H283Zm-4-4.09a2.3,2.3,0,1,0,2.3-2.3A2.29,2.29,0,0,0,279,94.5Zm22.61,13.38V106.7c0-4.85-2.78-8.43-7.16-8.43-4.69,0-7.76,3.54-7.76,8.46s3.07,8.46,7.76,8.46a9.06,9.06,0,0,0,6.23-2.3l-1.79-2.45a5.74,5.74,0,0,1-4.34,1.69c-2.43,0-4.06-1.76-4.38-4.22Zm-7.25-6.67c2.36,0,3.67,2,3.7,4.05h-7.85A4.11,4.11,0,0,1,294.32,101.21Zm17.17,14a5.5,5.5,0,0,0,4.31-1.85v1.53h3.39V92.52H315.8v7.6a5.55,5.55,0,0,0-4.34-1.85c-4.34,0-7.28,3.51-7.28,8.46S307.15,115.19,311.49,115.19ZM315.9,108a3.82,3.82,0,0,1-3.9,4.15c-2.87,0-4.37-2.4-4.37-5.3v-.19c0-2.91,1.56-5.31,4.37-5.31a3.83,3.83,0,0,1,3.9,4.16Zm20.41-6.36h4.44v-3h-4.44v-6.1c-1.15.35-2.26.77-3.41,1.12v5h-3v3h3v9.58c0,2.91,1.75,4,4.5,4a23.08,23.08,0,0,0,3.32-.25l-.45-3a13.75,13.75,0,0,1-2,.19c-1.53,0-1.92-.64-1.92-1.5ZM351,98.27c-4.69,0-7.79,3.54-7.79,8.46s3.1,8.46,7.79,8.46,7.79-3.54,7.79-8.46S355.64,98.27,351,98.27Zm0,13.86c-2.81,0-4.38-2.4-4.38-5.3v-.19c0-2.91,1.57-5.31,4.38-5.31s4.37,2.4,4.37,5.31v.19C355.32,109.73,353.76,112.13,351,112.13ZM195.19,141.35c0,4.28,2.69,7.6,6.81,7.6a5.43,5.43,0,0,0,4.15-1.66v2.27c0,2.13-1.54,3-3.77,3a13.69,13.69,0,0,1-5.33-1.22l-1,2.91a15.56,15.56,0,0,0,6.51,1.34c4.67,0,6.93-2,6.93-5.36V134.07h-3.38v1.31a5.47,5.47,0,0,0-4.15-1.63C197.85,133.75,195.19,137.1,195.19,141.35Zm7.29,4.57c-2.66,0-3.77-1.95-3.77-4.57s1.11-4.54,3.77-4.54,3.76,2,3.76,4.54S205.13,145.92,202.48,145.92ZM221,133.75c-4.7,0-7.79,3.54-7.79,8.46s3.09,8.46,7.79,8.46,7.79-3.54,7.79-8.46S225.7,133.75,221,133.75Zm0,13.86c-2.81,0-4.38-2.4-4.38-5.3v-.19c0-2.91,1.57-5.31,4.38-5.31s4.37,2.4,4.37,5.31v.19C225.38,145.21,223.82,147.61,221,147.61Zm18.85,2.74,5.3-16.28h-3.8l-3.54,12.13-3.48-12.13h-3.87l5.31,16.28Zm21.88-7v-1.18c0-4.85-2.77-8.43-7.15-8.43-4.69,0-7.76,3.54-7.76,8.46s3.07,8.46,7.76,8.46a9.06,9.06,0,0,0,6.23-2.3L259,145.92a5.74,5.74,0,0,1-4.34,1.69c-2.43,0-4.06-1.76-4.38-4.22Zm-7.24-6.67c2.36,0,3.67,2,3.7,4.05h-7.86A4.13,4.13,0,0,1,254.5,136.69Zm19.6-2.88h-.61a5.54,5.54,0,0,0-4.92,2.43v-2.17h-3.32v16.28h3.39v-8c0-4.12,2.52-5.08,4.91-5.08h.55Zm3,16.54h3.39v-9.48a3.56,3.56,0,0,1,3.64-3.86c1.63,0,3.06.86,3.06,3.32v10h3.39V139.56a5.42,5.42,0,0,0-5.72-5.81,5.67,5.67,0,0,0-4.37,1.85v-1.53h-3.39ZM307.9,141c0-2.75,1.5-3.93,3.26-3.93,1.5,0,2.78.86,2.78,3.32v10h3.41v-11a5.82,5.82,0,0,0-10.5-3.23,4.87,4.87,0,0,0-4.25-2.36,5.22,5.22,0,0,0-4.18,1.95v-1.63h-3.36v16.28h3.42V141c0-2.75,1.47-3.93,3.23-3.93,1.5,0,2.81.86,2.81,3.32v10h3.38Zm27.91,2.39v-1.18c0-4.85-2.78-8.43-7.16-8.43-4.69,0-7.76,3.54-7.76,8.46s3.07,8.46,7.76,8.46a9.06,9.06,0,0,0,6.23-2.3l-1.79-2.45a5.74,5.74,0,0,1-4.34,1.69c-2.43,0-4.06-1.76-4.38-4.22Zm-7.25-6.67c2.36,0,3.67,2,3.7,4.05h-7.85A4.11,4.11,0,0,1,328.56,136.69Zm10.75,13.66h3.39v-9.48a3.56,3.56,0,0,1,3.64-3.86c1.63,0,3.06.86,3.06,3.32v10h3.39V139.56a5.42,5.42,0,0,0-5.72-5.81,5.67,5.67,0,0,0-4.37,1.85v-1.53h-3.39Zm23-13.25h4.44v-3h-4.44V128c-1.15.35-2.26.77-3.41,1.12v5h-3v3h3v9.58c0,2.91,1.75,4,4.5,4a23.08,23.08,0,0,0,3.32-.25l-.45-3a13.75,13.75,0,0,1-2,.19c-1.53,0-1.92-.64-1.92-1.5ZM194.91,183.69a10.15,10.15,0,0,0,6.67,2.46c3.35,0,6.42-1.66,6.42-5.17,0-2.2-1.44-3.45-3.23-4.09-1.34-.48-2.74-.86-3.89-1.21s-1.85-.8-1.85-1.76,1-1.79,2.71-1.79a6.56,6.56,0,0,1,4.15,1.63l2-2.17-.09-.09a8.7,8.7,0,0,0-6-2.27c-3.55,0-6.26,2-6.26,5,0,3.19,2.87,4.18,4.92,4.73,1,.28,2,.51,2.65.76.95.35,1.4.8,1.4,1.66,0,1.15-1.08,1.89-2.81,1.89a7.33,7.33,0,0,1-5-2.14l-2.11,2.3Zm21.88-11.11h4.44v-3h-4.44v-6.1c-1.15.35-2.27.77-3.42,1.12v5h-3v3h3v9.58c0,2.91,1.76,4,4.5,4a23.08,23.08,0,0,0,3.32-.25l-.44-3a13.9,13.9,0,0,1-2.05.19c-1.53,0-1.91-.64-1.91-1.5Zm16.64,5.65v2.4c0,1.6-1.82,2.78-3.54,2.78-1.5,0-2.87-.74-2.87-2.4s1.43-2,2.62-2.17Zm.55,6.07a3.64,3.64,0,0,0,2.87,1.85l1.53-2.33-.35-.16c-.92-.38-1.21-.92-1.21-1.53v-7.57c0-4.5-3.48-5.33-6.55-5.33a12.36,12.36,0,0,0-6.22,1.69l1.43,2.65a10,10,0,0,1,4.89-1.31c1.69,0,3.06.61,3.06,2.68v.64l-5.36.8c-2.87.45-4.57,2.21-4.57,4.7,0,3.25,2.75,5.07,5.78,5.07A6.68,6.68,0,0,0,234,184.3Zm7.57,1.53h3.39v-9.48a3.56,3.56,0,0,1,3.64-3.86c1.63,0,3.06.86,3.06,3.32v10H255V175a5.42,5.42,0,0,0-5.72-5.81,5.67,5.67,0,0,0-4.37,1.85v-1.53h-3.39Zm24.35.32a5.53,5.53,0,0,0,4.31-1.85v1.53h3.39V163.48h-3.39v7.6a5.55,5.55,0,0,0-4.34-1.85c-4.34,0-7.28,3.51-7.28,8.46S261.56,186.15,265.9,186.15Zm4.41-7.21a3.82,3.82,0,0,1-3.9,4.15c-2.87,0-4.37-2.4-4.37-5.3v-.19c0-2.91,1.56-5.31,4.37-5.31a3.83,3.83,0,0,1,3.9,4.16Zm16.76-.71v2.4c0,1.6-1.82,2.78-3.54,2.78-1.5,0-2.88-.74-2.88-2.4s1.44-2,2.62-2.17Zm.54,6.07a3.65,3.65,0,0,0,2.88,1.85l1.53-2.33-.35-.16c-.93-.38-1.21-.92-1.21-1.53v-7.57c0-4.5-3.49-5.33-6.55-5.33a12.39,12.39,0,0,0-6.23,1.69l1.44,2.65a10,10,0,0,1,4.89-1.31c1.69,0,3.06.61,3.06,2.68v.64l-5.36.8c-2.88.45-4.57,2.21-4.57,4.7,0,3.25,2.75,5.07,5.78,5.07A6.66,6.66,0,0,0,287.61,184.3Zm16.42-15h-.6a5.54,5.54,0,0,0-4.92,2.43v-2.17h-3.32v16.28h3.38v-8c0-4.12,2.53-5.08,4.92-5.08H304Zm9.18,16.86a5.55,5.55,0,0,0,4.31-1.85v1.53h3.38V163.48h-3.38v7.6a5.57,5.57,0,0,0-4.34-1.85c-4.35,0-7.29,3.51-7.29,8.46S308.86,186.15,313.21,186.15Zm4.4-7.21a3.82,3.82,0,0,1-3.89,4.15c-2.88,0-4.38-2.4-4.38-5.3v-.19c0-2.91,1.57-5.31,4.38-5.31a3.82,3.82,0,0,1,3.89,4.16Zm6.77,4.75a10.17,10.17,0,0,0,6.67,2.46c3.36,0,6.42-1.66,6.42-5.17,0-2.2-1.43-3.45-3.22-4.09-1.34-.48-2.75-.86-3.9-1.21s-1.85-.8-1.85-1.76,1-1.79,2.71-1.79a6.56,6.56,0,0,1,4.16,1.63l2-2.17-.1-.09a8.68,8.68,0,0,0-6-2.27c-3.54,0-6.26,2-6.26,5,0,3.19,2.88,4.18,4.92,4.73,1,.28,2,.51,2.65.76,1,.35,1.4.8,1.4,1.66,0,1.15-1.08,1.89-2.81,1.89a7.35,7.35,0,0,1-5-2.14l-2.11,2.3Z"/><rect class="cls-2" x="62.45" y="93.59" width="92.25" height="92.25"/><polygon points="65.93 141.24 98.09 172.35 151.22 118.17 138.64 105.23 97.74 146.48 78.86 128.31 65.93 141.24"/></svg>